<?xml version="1.0" encoding="iso-8859-1"?>
<!-- Generator: Adobe Illustrator 16.0.0, SVG Export Plug-In . SVG Version: 6.00 Build 0)  -->
<!DOCTYPE svg PUBLIC "-//W3C//DTD SVG 1.1//EN" "http://www.w3.org/Graphics/SVG/1.1/DTD/svg11.dtd">
<svg version="1.1" id="Capa_1" xmlns="http://www.w3.org/2000/svg" xmlns:xlink="http://www.w3.org/1999/xlink" x="0px" y="0px"
	 width="30.262px" height="30.259px" viewBox="0 0 30.262 30.259" style="enable-background:new 0 0 30.262 30.259;"
	 xml:space="preserve">
<path style="fill:#000000;" d="M15.131,0C6.773,0,0,6.775,0,15.129c0,8.358,6.773,15.13,15.131,15.13s15.131-6.771,15.131-15.13
	C30.262,6.775,23.488,0,15.131,0z M12.859,24.147c-0.34,0.336-0.887,0.336-1.223,0l-0.271-0.271l0,0l-0.295-0.293l-1.266-1.266
	l-0.02-0.029l-5.807-5.851c-0.338-0.336-0.338-0.887,0-1.22l1.83-1.83c0.34-0.339,0.883-0.339,1.221,0l5.225,5.262l10.98-10.982
	c0.336-0.337,0.883-0.337,1.219,0l1.83,1.832c0.338,0.336,0.338,0.885,0,1.221L12.859,24.147z"/>
<g>
</g>
<g>
</g>
<g>
</g>
<g>
</g>
<g>
</g>
<g>
</g>
<g>
</g>
<g>
</g>
<g>
</g>
<g>
</g>
<g>
</g>
<g>
</g>
<g>
</g>
<g>
</g>
<g>
</g>
</svg>
