<?xml version="1.0" encoding="iso-8859-1"?>
<!-- Generator: Adobe Illustrator 16.0.4, SVG Export Plug-In . SVG Version: 6.00 Build 0)  -->
<!DOCTYPE svg PUBLIC "-//W3C//DTD SVG 1.1//EN" "http://www.w3.org/Graphics/SVG/1.1/DTD/svg11.dtd">
<svg version="1.1" id="Layer_1" xmlns="http://www.w3.org/2000/svg" xmlns:xlink="http://www.w3.org/1999/xlink" x="0px" y="0px"
	 width="24.438px" height="24.438px" viewBox="-0.001 0 24.438 24.438" style="enable-background:new -0.001 0 24.438 24.438;"
	 xml:space="preserve">
<path d="M23.503,15.338c1.125-1.375,2.688-11-5.125-14.25c-7.812-3.25-11.562,1.625-11.5,3.625C4.253,5.65,3.69,8.588,3.69,8.588
	s-3.813,1.875-3.688,4.125c0.125,2.25,2.875,2.375,2.875,2.375l0.834,1.146l0.166-1.146c0,0,4.109-1.896,4.297-0.239
	c0.188,1.657-3.608,2.239-3.608,2.239l-0.771-0.562l0.235,1.049c0,0-0.839,0.264-0.464,1.075c0.75,1.25,3.25-0.438,3.25-0.438
	S4.88,25.518,10.44,23.9c-3.438-1.75-0.313-4.438-0.313-4.438s0.688,7,7.5,2.75c-5.375,0.563-4.143-2.146-3.562-2.75
	c0.58-0.604,3.562-3.705,3.562-3.705s1.563,2.33-2.25,5.186c5,1.333,5.25-7.792,5.25-7.792s1.188,4.375-1.938,7.313
	c7.125-1.563,3.562-10.5,3.562-10.5S23.565,10.4,23.503,15.338z M4.686,8.338C4.566,7.885,4.91,7.525,5.269,7.463
	C5.628,7.401,6.936,7.787,7.315,7.99C7.694,8.193,4.806,8.791,4.686,8.338z"/>
</svg>
