<?xml version="1.0" encoding="utf-8"?>
<!-- Generator: Adobe Illustrator 16.0.0, SVG Export Plug-In . SVG Version: 6.00 Build 0)  -->
<!DOCTYPE svg PUBLIC "-//W3C//DTD SVG 1.1//EN" "http://www.w3.org/Graphics/SVG/1.1/DTD/svg11.dtd">
<svg version="1.1" id="Layer_1" xmlns="http://www.w3.org/2000/svg" xmlns:xlink="http://www.w3.org/1999/xlink" x="0px" y="0px"
	 width="100px" height="100px" viewBox="0 0 100 100" enable-background="new 0 0 100 100" xml:space="preserve">
<g>
	<path d="M24.051,66.154H8.077c-1.105,0-2.105,0.937-2.105,2.05v27.955c0,1.104,1,1.992,2.105,1.992h0.051h15.874h0.049
		c1.105,0,2.057-0.888,2.057-1.992V68.204C26.107,67.09,25.156,66.154,24.051,66.154z M22.154,90.056H10.109V70.104h12.045V90.056z"
		/>
	<path d="M63.817,79.796l-7.755-6.17c0.462-1.153,0.753-2.414,0.753-3.739c0-4.492-3.042-8.298-6.995-9.581v-8.339
		c0-1.668-1.346-3.02-3.011-3.02c-1.661,0-3.008,1.352-3.008,3.02v8.339c-4.145,1.275-7.065,5.083-7.065,9.581
		c0,1.247,0.204,2.436,0.617,3.531l-8.329,6.338c-1.325,1.009-1.585,2.896-0.578,4.229c0.597,0.773,1.49,1.184,2.398,1.184
		c0.639,0,1.28-0.199,1.824-0.615l8.392-6.386c1.616,1.113,3.57,1.762,5.679,1.762c2.029,0,3.92-0.604,5.501-1.645l7.823,6.229
		c0.557,0.44,1.217,0.654,1.875,0.654c0.887,0,1.765-0.387,2.362-1.135C65.335,82.728,65.12,80.833,63.817,79.796z"/>
	<path d="M95.373,65.398H69.941c-1.641,0-2.969,1.243-2.969,2.883v19.844c0,1.646,1.328,3.042,2.969,3.042h10.505v3.283h-3.901
		c-1.495,0-2.775,1.211-2.775,2.699V98.9H91.57v-1.751c0-1.487-1.146-2.699-2.636-2.699h-4.039v-3.283h10.478
		c1.64,0,2.993-1.396,2.993-3.042V68.281C98.366,66.641,97.013,65.398,95.373,65.398z M93.91,86.717H71.382V69.854H93.91V86.717z"/>
	<path d="M20.613,56.465H39.86v-4.498c0-3.838,3.117-6.96,6.949-6.96c3.833,0,6.952,3.122,6.952,6.96v4.498h18.414
		c11.03,0,20.003-8.974,20.003-20.003c0-10.443-8.044-19.042-18.261-19.928c-0.694-0.06-1.331-0.415-1.747-0.974
		c-3.734-5.019-9.706-8.112-16.059-8.112c-0.386,0-0.773,0.011-1.16,0.034c-0.577,0.033-1.144-0.139-1.605-0.485
		C49.475,4.086,44.79,2.51,39.883,2.51c-8.792,0-16.597,5.082-20.263,12.783c-0.351,0.738-1.049,1.251-1.858,1.367
		C8.078,18.049,0.609,26.4,0.609,36.462C0.609,47.491,9.583,56.465,20.613,56.465z"/>
</g>
</svg>
